<svg width="20" height="17" viewBox="0 0 20 17" fill="none" xmlns="http://www.w3.org/2000/svg">
<path d="M20 1.91205C19.2639 2.24665 18.4704 2.46654 17.6482 2.5717C18.4895 2.06501 19.1396 1.26195 19.4455 0.296367C18.652 0.774378 17.7725 1.10899 16.8451 1.30019C16.0899 0.478012 15.0287 0 13.8241 0C11.5774 0 9.74187 1.83556 9.74187 4.10134C9.74187 4.42639 9.78012 4.74187 9.84704 5.03824C6.4436 4.86616 3.413 3.23136 1.39579 0.755258C1.04207 1.35755 0.8413 2.06501 0.8413 2.81071C0.8413 4.23518 1.55832 5.49713 2.6673 6.21415C1.98853 6.21415 1.35755 6.02294 0.80306 5.73614V5.76482C0.80306 7.75335 2.21797 9.41683 4.09178 9.78967C3.49018 9.95431 2.8586 9.97722 2.24665 9.8566C2.50632 10.6716 3.01485 11.3847 3.70078 11.8957C4.38671 12.4067 5.21553 12.69 6.07075 12.7055C4.62106 13.8532 2.82409 14.4735 0.975144 14.4646C0.650096 14.4646 0.325048 14.4455 0 14.4073C1.81644 15.5736 3.97706 16.2524 6.29063 16.2524C13.8241 16.2524 17.9637 10 17.9637 4.57935C17.9637 4.39771 17.9637 4.22562 17.9541 4.04398C18.7572 3.47036 19.4455 2.74379 20 1.91205Z" fill="#A8CAC1"/>
</svg>
