<svg width="58" height="19" viewBox="0 0 58 19" fill="none" xmlns="http://www.w3.org/2000/svg">
<path d="M9.49212 1.58325C5.12212 1.58325 1.58337 5.12992 1.58337 9.49992C1.58337 13.8699 5.12212 17.4166 9.49212 17.4166C13.87 17.4166 17.4167 13.8699 17.4167 9.49992C17.4167 5.12992 13.87 1.58325 9.49212 1.58325ZM14.9784 6.33325H12.643C12.3896 5.34367 12.0255 4.39367 11.5505 3.51492C13.0071 4.01367 14.2184 5.027 14.9784 6.33325ZM9.50004 3.19825C10.1571 4.14825 10.6717 5.20117 11.0121 6.33325H7.98796C8.32837 5.20117 8.84296 4.14825 9.50004 3.19825ZM3.37254 11.0833C3.24587 10.5766 3.16671 10.0462 3.16671 9.49992C3.16671 8.95367 3.24587 8.42325 3.37254 7.91659H6.04837C5.98504 8.43909 5.93754 8.96159 5.93754 9.49992C5.93754 10.0383 5.98504 10.5608 6.04837 11.0833H3.37254ZM4.02171 12.6666H6.35712C6.61046 13.6562 6.97462 14.6062 7.44962 15.4849C5.99296 14.9862 4.78171 13.9808 4.02171 12.6666ZM6.35712 6.33325H4.02171C4.78171 5.01909 5.99296 4.01367 7.44962 3.51492C6.97462 4.39367 6.61046 5.34367 6.35712 6.33325ZM9.50004 15.8016C8.84296 14.8516 8.32837 13.7987 7.98796 12.6666H11.0121C10.6717 13.7987 10.1571 14.8516 9.50004 15.8016ZM11.3525 11.0833H7.64754C7.57629 10.5608 7.52087 10.0383 7.52087 9.49992C7.52087 8.96159 7.57629 8.43117 7.64754 7.91659H11.3525C11.4238 8.43117 11.4792 8.96159 11.4792 9.49992C11.4792 10.0383 11.4238 10.5608 11.3525 11.0833ZM11.5505 15.4849C12.0255 14.6062 12.3896 13.6562 12.643 12.6666H14.9784C14.2184 13.9728 13.0071 14.9862 11.5505 15.4849ZM12.9517 11.0833C13.015 10.5608 13.0625 10.0383 13.0625 9.49992C13.0625 8.96159 13.015 8.43909 12.9517 7.91659H15.6275C15.7542 8.42325 15.8334 8.95367 15.8334 9.49992C15.8334 10.0462 15.7542 10.5766 15.6275 11.0833H12.9517Z" fill="#838383"/>
<path d="M28.4488 14.612C27.8608 14.612 27.3148 14.4907 26.8108 14.248C26.3068 13.996 25.9007 13.646 25.5927 13.198L26.4048 12.246C26.9461 13.0207 27.6274 13.408 28.4488 13.408C28.9994 13.408 29.4148 13.24 29.6948 12.904C29.9841 12.568 30.1288 12.0733 30.1288 11.42V5.918H26.5868V4.7H31.5148V11.35C31.5148 12.4327 31.2534 13.2493 30.7308 13.8C30.2174 14.3413 29.4568 14.612 28.4488 14.612ZM38.1885 4.7C39.4578 4.7 40.4565 5.00333 41.1845 5.61C41.9125 6.21667 42.2765 7.052 42.2765 8.116C42.2765 9.18 41.9125 10.0153 41.1845 10.622C40.4565 11.2287 39.4578 11.532 38.1885 11.532H35.7665V14.5H34.3665V4.7H38.1885ZM38.1465 10.314C39.0332 10.314 39.7098 10.1273 40.1765 9.754C40.6432 9.37133 40.8765 8.82533 40.8765 8.116C40.8765 7.40667 40.6432 6.86533 40.1765 6.492C39.7098 6.10933 39.0332 5.918 38.1465 5.918H35.7665V10.314H38.1465Z" fill="#838383"/>
<path d="M56.1849 7.2221L53.2388 10.1682L50.2927 7.2221C49.9966 6.92597 49.5182 6.92597 49.2221 7.2221C48.926 7.51822 48.926 7.99658 49.2221 8.29271L52.7073 11.7779C53.0034 12.074 53.4818 12.074 53.7779 11.7779L57.2631 8.29271C57.5592 7.99658 57.5592 7.51822 57.2631 7.2221C56.967 6.93356 56.481 6.92597 56.1849 7.2221Z" fill="#B4B4B4"/>
</svg>
